<svg xmlns="http://www.w3.org/2000/svg" viewBox="0 0 1971.000000 461.000000" fill="none" role="img" aria-labelledby="lobu-lockup-title">
  <title id="lobu-lockup-title">Lobu</title>
  <defs>
    <linearGradient id="lobu-lockup-orange" x1="0" y1="0" x2="1" y2="1">
      <stop offset="0" stop-color="#ff4b00"/>
      <stop offset="1" stop-color="#ff8a1a"/>
    </linearGradient>
  </defs>
  <g transform="translate(0.000000,461.000000) scale(0.100000,-0.100000)" stroke="none">
    <path fill="url(#lobu-lockup-orange)" d="M2610 4371 c-4 -278 9 -467 40 -604 29 -131 95 -276 178 -392 51 -71 81 -103 462 -491 190 -193 220 -229 258 -300 57 -111 75 -194 69 -314 -6 -109 -34 -205 -87 -296 -24 -41 -133 -158 -356 -384 -349 -354 -384 -398 -455 -574 -72 -179 -108 -388 -112 -641 -1 -90 2 -167 6 -171 11 -12 141 13 200 38 109 45 209 121 342 259 72 74 231 238 355 364 124 127 334 342 465 480 132 137 294 306 360 375 146 151 172 184 218 276 57 112 71 174 71 304 0 131 -21 217 -80 331 -45 86 -87 132 -543 599 -669 685 -974 990 -1036 1034 -103 74 -205 119 -304 135 l-51 8 0 -36z"/>
    <path fill="url(#lobu-lockup-orange)" d="M2049 4376 c-84 -30 -223 -120 -291 -189 -29 -29 -186 -190 -348 -357 -162 -168 -466 -480 -675 -695 -209 -214 -398 -417 -420 -450 -83 -125 -120 -265 -111 -413 7 -113 26 -184 77 -283 51 -97 115 -168 865 -950 171 -178 380 -397 465 -487 160 -170 242 -238 345 -290 65 -33 164 -62 209 -62 l28 0 -6 228 c-7 297 -31 434 -106 612 -70 164 -128 237 -437 553 -302 309 -353 373 -401 505 -45 123 -42 283 7 414 37 99 90 164 391 478 160 168 313 337 339 375 151 224 197 403 207 808 l6 227 -39 0 c-22 0 -69 -11 -105 -24z"/>
    <path fill="currentColor" d="M13046 4171 c-3 -5 -6 -888 -7 -1962 l0 -1954 274 -3 c212 -2 277 1 284 10 6 7 32 81 58 163 46 146 59 175 75 175 5 0 53 -40 109 -88 169 -148 346 -237 561 -283 89 -19 135 -23 305 -23 211 0 306 13 465 64 97 31 295 132 375 192 267 198 472 542 557 933 30 138 33 550 5 690 -98 488 -339 831 -712 1010 -164 79 -272 111 -465 134 -212 27 -427 -3 -641 -89 -133 -54 -235 -118 -334 -212 l-85 -80 -1 58 c-1 33 -1 326 0 653 1 433 -2 597 -10 607 -9 12 -83 14 -410 14 -223 0 -400 -4 -403 -9z m1707 -1766 c182 -47 341 -172 417 -328 60 -125 83 -242 77 -397 -5 -135 -25 -217 -77 -321 -75 -148 -213 -263 -380 -316 -63 -20 -251 -32 -340 -21 -313 37 -527 258 -577 596 -14 96 -14 116 0 214 47 324 255 538 572 588 79 12 229 5 308 -15z"/>
    <path fill="currentColor" d="M6382 3968 c-9 -9 -12 -428 -12 -1865 l0 -1853 1353 2 1352 3 0 390 0 390 -910 5 -910 5 -5 1465 -5 1465 -425 3 c-323 2 -429 -1 -438 -10z"/>
    <path fill="currentColor" d="M10770 3234 c-275 -25 -552 -122 -777 -273 -254 -170 -456 -444 -559 -757 -101 -309 -97 -699 12 -1022 54 -163 172 -362 289 -490 353 -384 934 -564 1491 -463 209 39 460 145 628 265 120 86 262 229 336 337 72 104 168 300 204 414 88 278 98 558 32 855 -44 195 -132 389 -249 545 -152 204 -407 393 -645 479 -118 42 -246 76 -350 91 -100 16 -333 26 -412 19z m297 -829 c32 -8 95 -33 140 -56 205 -103 330 -313 349 -593 6 -86 -7 -199 -24 -210 -14 -8 -207 61 -312 112 -58 28 -145 74 -193 103 -107 63 -120 61 -125 -22 -3 -61 -6 -57 203 -304 55 -65 128 -151 163 -192 l62 -74 -40 -34 c-49 -41 -146 -87 -220 -106 -69 -17 -246 -17 -325 0 -173 37 -335 163 -414 321 -67 137 -85 227 -78 400 4 121 9 158 32 225 39 118 82 191 155 265 155 156 402 221 627 165z"/>
    <path fill="currentColor" d="M16610 3146 c-9 -12 -11 -212 -7 -863 3 -718 7 -864 20 -950 33 -208 67 -322 134 -457 64 -127 115 -199 207 -292 237 -237 580 -365 1016 -381 786 -28 1295 314 1464 982 60 239 61 255 61 1150 l0 820 -425 0 -425 0 -6 -825 c-7 -918 -6 -906 -75 -1046 -65 -131 -199 -234 -351 -270 -88 -21 -243 -20 -330 2 -157 38 -289 140 -348 266 -73 159 -69 101 -72 1022 -3 579 -7 834 -15 843 -17 20 -831 19 -848 -1z"/>
  </g>
</svg>
