<svg xmlns="http://www.w3.org/2000/svg" viewBox="0 0 442.163213 420.701311" fill="none" role="img" aria-labelledby="lobu-mark-title">
  <title id="lobu-mark-title">Lobu</title>
  <defs>
    <linearGradient id="lobu-orange" x1="0" y1="0" x2="1" y2="1">
      <stop offset="0" stop-color="#ff4b00"/>
      <stop offset="1" stop-color="#ff8a1a"/>
    </linearGradient>
  </defs>
  <g transform="translate(-10.239564,430.701311) scale(0.100000,-0.100000)" fill="url(#lobu-orange)">
    <path d="M2510 4271 c-4 -278 9 -467 40 -604 29 -131 95 -276 178 -392 51 -71 81 -103 462 -491 190 -193 220 -229 258 -300 57 -111 75 -194 69 -314 -6 -109 -34 -205 -87 -296 -24 -41 -133 -158 -356 -384 -349 -354 -384 -398 -455 -574 -72 -179 -108 -388 -112 -641 -1 -90 2 -167 6 -171 11 -12 141 13 200 38 109 45 209 121 342 259 72 74 231 238 355 364 124 127 334 342 465 480 132 137 294 306 360 375 146 151 172 184 218 276 57 112 71 174 71 304 0 131 -21 217 -80 331 -45 86 -87 132 -543 599 -669 685 -974 990 -1036 1034 -103 74 -205 119 -304 135 l-51 8 0 -36z"/>
    <path d="M1949 4276 c-84 -30 -223 -120 -291 -189 -29 -29 -186 -190 -348 -357 -162 -168 -466 -480 -675 -695 -209 -214 -398 -417 -420 -450 -83 -125 -120 -265 -111 -413 7 -113 26 -184 77 -283 51 -97 115 -168 865 -950 171 -178 380 -397 465 -487 160 -170 242 -238 345 -290 65 -33 164 -62 209 -62 l28 0 -6 228 c-7 297 -31 434 -106 612 -70 164 -128 237 -437 553 -302 309 -353 373 -401 505 -45 123 -42 283 7 414 37 99 90 164 391 478 160 168 313 337 339 375 151 224 197 403 207 808 l6 227 -39 0 c-22 0 -69 -11 -105 -24z"/>
  </g>
</svg>
